<?xml version="1.0" standalone="no"?>
<!DOCTYPE svg PUBLIC "-//W3C//DTD SVG 20010904//EN"
 "http://www.w3.org/TR/2001/REC-SVG-20010904/DTD/svg10.dtd">
<svg version="1.0" xmlns="http://www.w3.org/2000/svg"
 width="500.000000pt" height="500.000000pt" viewBox="0 0 500.000000 500.000000"
 preserveAspectRatio="xMidYMid meet">

<g transform="translate(0.000000,500.000000) scale(0.100000,-0.100000)"
fill="#000000" stroke="none">
<path d="M2275 3874 c-205 -34 -447 -137 -606 -257 -273 -208 -464 -508 -536
-847 -25 -120 -25 -420 0 -540 119 -560 536 -976 1099 -1097 117 -25 419 -25
536 0 184 40 358 113 512 215 106 70 269 227 344 331 73 103 156 262 194 376
55 163 67 241 67 445 0 204 -12 282 -67 445 -38 114 -121 273 -194 376 -76
104 -238 261 -345 332 -171 114 -366 190 -564 222 -110 18 -331 18 -440 -1z
m455 -39 c100 -17 271 -71 355 -112 376 -188 629 -504 733 -913 25 -97 27
-121 27 -310 0 -189 -2 -213 -27 -310 -72 -282 -213 -517 -420 -701 -146 -129
-290 -213 -468 -273 -165 -56 -264 -69 -475 -63 -151 4 -196 9 -275 30 -133
35 -242 79 -346 139 -331 190 -556 488 -652 868 -25 97 -27 121 -27 310 0 189
2 213 27 310 32 126 92 277 149 374 202 341 554 587 933 650 113 19 350 19
466 1z"/>
<path d="M1727 3354 c-4 -4 -7 -97 -7 -206 l0 -198 185 0 185 0 0 35 0 35 305
0 c179 0 325 -4 354 -11 101 -21 152 -83 152 -182 0 -69 -20 -118 -62 -149
-66 -49 -84 -51 -426 -56 l-323 -4 0 76 0 76 -185 0 -185 0 0 -495 0 -495 185
0 185 0 0 270 0 270 273 0 272 0 169 -270 168 -270 199 0 c109 0 199 2 199 5
0 3 -85 139 -189 302 l-189 297 57 36 c145 94 221 242 221 430 0 150 -40 251
-134 345 -72 71 -136 108 -243 137 -75 21 -100 22 -618 26 -297 2 -544 0 -548
-4z"/>
</g>
</svg>
